<svg width="0" height="0" class="hidden">
  <symbol xmlns="http://www.w3.org/2000/svg" viewBox="0 0 455 455" id="facebook">
    <path d="M0 0v455h455V0H0zm301.004 125.217H265.44c-7.044 0-14.153 7.28-14.153 12.696v36.264h49.647c-1.999 27.807-6.103 53.235-6.103 53.235h-43.798V385h-65.266V227.395h-31.771v-53.029h31.771V131.01c0-7.928-1.606-61.009 66.872-61.009h48.366v55.216z" fill-rule="evenodd"
      clip-rule="evenodd"></path>
  </symbol>
  <symbol xmlns="http://www.w3.org/2000/svg" viewBox="0 0 364 364" id="instagram">
    <g fill-rule="evenodd" clip-rule="evenodd">
      <path d="M244.424 83.438H119.577c-19.925 0-36.139 16.213-36.139 36.139v124.846c0 19.929 16.214 36.143 36.139 36.143h124.847c19.928 0 36.142-16.214 36.142-36.143V119.577c0-19.925-16.214-36.139-36.142-36.139zm-62.426 163.456c-35.779 0-64.892-29.113-64.892-64.896 0-35.779 29.113-64.892 64.892-64.892 35.783 0 64.896 29.113 64.896 64.892 0 35.783-29.113 64.896-64.896 64.896zm66.984-116.369c-8.471 0-15.359-6.888-15.359-15.354 0-8.467 6.888-15.355 15.359-15.355 8.466 0 15.354 6.888 15.354 15.355s-6.888 15.354-15.354 15.354z"></path>
      <path d="M181.998 144.531c-20.655 0-37.475 16.812-37.475 37.467 0 20.663 16.82 37.479 37.475 37.479 20.663 0 37.471-16.816 37.471-37.479 0-20.655-16.808-37.467-37.471-37.467z"></path>
      <path d="M0 0v364h364V0H0zm307.984 244.423c0 35.053-28.508 63.561-63.56 63.561H119.577c-35.049 0-63.561-28.508-63.561-63.561V119.577c0-35.049 28.512-63.561 63.561-63.561h124.847c35.052 0 63.56 28.512 63.56 63.561v124.846z"></path>
    </g>
  </symbol>
  <symbol xmlns="http://www.w3.org/2000/svg" viewBox="0 0 455 455" id="pinterest">
    <path d="M0 0v455h455V0H0zm251.83 297.635c-19.57 0-37.973-10.516-44.227-22.557 0 0-10.516 41.691-12.71 49.78-7.84 28.437-30.926 56.874-32.684 59.176-1.229 1.649-4.013 1.105-4.324-1.026-.482-3.656-6.379-39.497.545-68.728l23.272-98.627s-5.771-11.543-5.771-28.624c0-26.85 15.556-46.856 34.939-46.856 16.474 0 24.377 12.337 24.377 27.177 0 16.521-10.516 41.318-15.977 64.216-4.511 19.212 9.598 34.831 28.546 34.831 34.332 0 57.371-43.993 57.371-96.138 0-39.684-26.678-69.397-75.292-69.397-54.867 0-89.075 40.96-89.075 86.649 0 15.805 4.667 26.928 11.963 35.499 3.345 4.014 3.765 5.585 2.613 10.143-.917 3.344-2.862 11.309-3.765 14.529-1.151 4.559-4.931 6.191-9.053 4.496-25.217-10.329-37.009-37.989-37.009-69.164C105.569 131.619 148.832 70 234.874 70c69.101 0 114.557 50.013 114.557 103.667 0 70.968-39.436 123.968-97.601 123.968z"
      fill-rule="evenodd" clip-rule="evenodd"></path>
  </symbol>
  <symbol xmlns="http://www.w3.org/2000/svg" viewBox="0 0 455.731 455.731" id="twitter">
    <path d="M0 0v455.731h455.731V0H0zm361.271 163.944c.104 2.676.161 5.362.161 8.067 0 108.339-87.831 196.18-196.18 196.18-38.568 0-74.545-11.132-104.875-30.368a.918.918 0 0 1-.02-.003l.02.003c59.293 8.843 101.06-28.888 101.06-28.888-52.832-4.109-63.271-48.077-63.271-48.077 18.667 3.16 30.368-1.272 30.368-1.272-59.465-13.912-54.407-68.329-54.407-68.329 13.77 8.228 29.733 8.864 29.733 8.864-52.509-46.188-19.607-91.105-19.607-91.105 55.052 66.668 135.975 71.204 141.289 71.423a68.67 68.67 0 0 1-1.784-15.592c0-37.998 30.814-68.803 68.841-68.803 19.825 0 37.685 8.37 50.25 21.78a223.578 223.578 0 0 0 10.088-3.103c19.493-6.501 33.415-13.932 33.415-13.932-3.359 20.129-28.176 37.021-29.951 38.207-.066.047-.104.066-.104.066.038 0 .085-.009.123-.009 19.265-1.927 38.948-10.107 38.948-10.107-5.94 12.487-30.178 31.913-34.097 34.998z"></path>
  </symbol>
</svg>